<?xml version="1.0" standalone="no"?>
<!DOCTYPE svg PUBLIC "-//W3C//DTD SVG 1.1//EN" "http://www.w3.org/Graphics/SVG/1.1/DTD/svg11.dtd" >
<!--
2013-9-30: Created.
-->
<svg>
<metadata>
Created by iconfont
</metadata>
<defs>

<font id="iconfont" horiz-adv-x="1024" >
  <font-face
    font-family="iconfont"
    font-weight="500"
    font-stretch="normal"
    units-per-em="1024"
    ascent="896"
    descent="-128"
  />
    <missing-glyph />
    
    <glyph glyph-name="Added" unicode="&#58881;" d="M938.666667 426.666667H554.666667V810.666667c0 23.466667-19.2 42.666667-42.666667 42.666666s-42.666667-19.2-42.666667-42.666666v-384H85.333333c-23.466667 0-42.666667-19.2-42.666666-42.666667s19.2-42.666667 42.666666-42.666667h384v-384c0-23.466667 19.2-42.666667 42.666667-42.666666s42.666667 19.2 42.666667 42.666666V341.333333h384c23.466667 0 42.666667 19.2 42.666666 42.666667s-19.2 42.666667-42.666666 42.666667z"  horiz-adv-x="1024" />

    
    <glyph glyph-name="caveat-" unicode="&#58893;" d="M512 853.333333C253.866667 853.333333 42.666667 642.133333 42.666667 384s209.066667-469.333333 469.333333-469.333333 469.333333 209.066667 469.333333 469.333333c0 258.133333-209.066667 469.333333-469.333333 469.333333z m0-714.666666c-23.466667 0-42.666667 19.2-42.666667 42.666666s19.2 42.666667 42.666667 42.666667 42.666667-19.2 42.666667-42.666667-19.2-42.666667-42.666667-42.666666z m0 157.866666c-23.466667 0-42.666667 19.2-42.666667 42.666667V586.666667c0 23.466667 19.2 42.666667 42.666667 42.666666s42.666667-19.2 42.666667-42.666666v-247.466667c0-23.466667-19.2-42.666667-42.666667-42.666667z"  horiz-adv-x="1024" />

    
    <glyph glyph-name="closed" unicode="&#58892;" d="M571.733333 384L908.8 721.066667c17.066667 17.066667 17.066667 42.666667 0 59.733333-17.066667 17.066667-42.666667 17.066667-59.733333 0L512 443.733333 174.933333 780.8c-17.066667 17.066667-42.666667 17.066667-59.733333 0-17.066667-17.066667-17.066667-42.666667 0-59.733333L452.266667 384 115.2 46.933333c-17.066667-17.066667-17.066667-42.666667 0-59.733333 17.066667-17.066667 42.666667-17.066667 59.733333 0L512 324.266667l337.066667-337.066667c17.066667-17.066667 42.666667-17.066667 59.733333 0 17.066667 17.066667 17.066667 42.666667 0 59.733333L571.733333 384z"  horiz-adv-x="1024" />

    
    <glyph glyph-name="correct-" unicode="&#58895;" d="M512 853.333333a469.333333 469.333333 0 1 1 469.333333-469.333333A469.333333 469.333333 0 0 1 512 853.333333z m-100.266667-646.4l-119.466666 119.466667a42.666667 42.666667 0 0 0 0 59.733333 42.666667 42.666667 0 0 0 59.733333 0l83.2-83.2a10.666667 10.666667 0 0 1 14.933333 0l221.866667 226.133334a42.666667 42.666667 0 0 0 59.733333 0 42.666667 42.666667 0 0 0 0-59.733334L471.466667 206.93333299999995a42.666667 42.666667 0 0 0-59.733334 0z"  horiz-adv-x="1024" />

    
    <glyph glyph-name="Collapse" unicode="&#58896;" d="M938.666667 691.2H87.466667c-23.466667 0-42.666667 19.2-42.666667 42.666667s19.2 42.666667 42.666667 42.666666H938.666667c23.466667 0 42.666667-19.2 42.666666-42.666666s-19.2-42.666667-42.666666-42.666667zM938.666667 452.266667H386.133333c-23.466667 0-42.666667 19.2-42.666666 42.666666s19.2 42.666667 42.666666 42.666667H938.666667c23.466667 0 42.666667-19.2 42.666666-42.666667s-19.2-42.666667-42.666666-42.666666zM938.666667 213.333333H386.133333c-23.466667 0-42.666667 19.2-42.666666 42.666667s19.2 42.666667 42.666666 42.666667H938.666667c23.466667 0 42.666667-19.2 42.666666-42.666667s-19.2-42.666667-42.666666-42.666667zM938.666667-25.6H87.466667c-23.466667 0-42.666667 19.2-42.666667 42.666667s19.2 42.666667 42.666667 42.666666H938.666667c23.466667 0 42.666667-19.2 42.666666-42.666666s-19.2-42.666667-42.666666-42.666667zM93.866667 409.6l123.733333 87.466667c27.733333 19.2 68.266667 0 68.266667-34.133334v-172.8c0-34.133333-38.4-55.466667-68.266667-34.133333l-123.733333 87.466667c-23.466667 12.8-23.466667 49.066667 0 66.133333z"  horiz-adv-x="1024" />

    
    <glyph glyph-name="delete" unicode="&#58901;" d="M936.533333 725.333333h-194.133333V810.666667a42.666667 42.666667 0 0 1-42.666667 42.666666H324.266667a42.666667 42.666667 0 0 1-42.666667-42.666666v-85.333334H87.466667A44.8 44.8 0 0 1 42.666667 689.066667 42.666667 42.666667 0 0 1 85.333333 640h85.333334v-682.666667a42.666667 42.666667 0 0 1 42.666666-42.666666h597.333334a42.666667 42.666667 0 0 1 42.666666 42.666666V640h85.333334a42.666667 42.666667 0 0 1 42.666666 49.066667A44.8 44.8 0 0 1 936.533333 725.333333zM377.6 768h268.8a10.666667 10.666667 0 0 0 10.666667-10.666667V725.333333H366.933333V757.333333a10.666667 10.666667 0 0 0 10.666667 10.666667zM746.666667 0H277.333333a21.333333 21.333333 0 0 0-21.333333 21.333333V640h512v-618.666667a21.333333 21.333333 0 0 0-21.333333-21.333333zM360.533333 85.33333300000004a42.666667 42.666667 0 0 1 42.666667 42.666667V512a42.666667 42.666667 0 0 1-85.333333 0v-384a42.666667 42.666667 0 0 1 42.666666-42.666667zM512 85.33333300000004a42.666667 42.666667 0 0 1 42.666667 42.666667V512a42.666667 42.666667 0 0 1-85.333334 0v-384a42.666667 42.666667 0 0 1 42.666667-42.666667zM661.333333 85.33333300000004a42.666667 42.666667 0 0 1 42.666667 42.666667V512a42.666667 42.666667 0 1 1-85.333333 0v-384a42.666667 42.666667 0 0 1 42.666666-42.666667z"  horiz-adv-x="1024" />

    
    <glyph glyph-name="dropdown" unicode="&#58894;" d="M482.133333 132.266667L72.533333 546.133333c-17.066667 17.066667-17.066667 44.8 0 59.733334 17.066667 17.066667 44.8 17.066667 59.733334 0l362.666666-366.933334c8.533333-8.533333 21.333333-8.533333 29.866667 0l364.8 366.933334c17.066667 17.066667 42.666667 17.066667 59.733333 0 17.066667-17.066667 17.066667-42.666667 0-59.733334L541.866667 132.266667c-17.066667-17.066667-44.8-17.066667-59.733334 0z"  horiz-adv-x="1024" />

    
    <glyph glyph-name="dropout" unicode="&#58897;" d="M490.666667-85.333333c-232.533333 12.8-422.4 206.933333-426.666667 439.466666-2.133333 142.933333 59.733333 275.2 172.8 362.666667 10.666667 8.533333 21.333333 14.933333 32 21.333333 21.333333 14.933333 51.2 6.4 61.866667-17.066666 10.666667-19.2 2.133333-42.666667-14.933334-55.466667l-25.6-19.2c-96-74.666667-147.2-192-138.666666-315.733333 12.8-179.2 162.133333-324.266667 343.466666-332.8C701.866667-8.533333 874.666667 157.866667 874.666667 362.666667c0 113.066667-51.2 217.6-140.8 285.866666-8.533333 6.4-17.066667 12.8-25.6 17.066667-19.2 12.8-25.6 36.266667-14.933334 55.466667 10.666667 23.466667 40.533333 29.866667 61.866667 17.066666 10.666667-6.4 21.333333-14.933333 32-21.333333 110.933333-85.333333 172.8-215.466667 172.8-354.133333 0-253.866667-211.2-458.666667-469.333333-448zM512 341.333333c-23.466667 0-42.666667 19.2-42.666667 42.666667V810.666667c0 23.466667 19.2 42.666667 42.666667 42.666666s42.666667-19.2 42.666667-42.666666v-426.666667c0-23.466667-19.2-42.666667-42.666667-42.666667z"  horiz-adv-x="1024" />

    
    <glyph glyph-name="password" unicode="&#58905;" d="M846.933333 501.333333h-55.466666v85.333334A283.733333 283.733333 0 0 1 526.933333 874.666667 279.466667 279.466667 0 0 1 234.666667 597.333333v-93.866666H177.066667a42.666667 42.666667 0 0 1-42.666667-42.666667V-21.33333300000004a42.666667 42.666667 0 0 1 42.666667-42.666667h669.866666a42.666667 42.666667 0 0 1 42.666667 42.666667V458.666667a42.666667 42.666667 0 0 1-42.666667 42.666666z m-529.066666 93.866667a194.133333 194.133333 0 0 0 206.933333 192 198.4 198.4 0 0 0 179.2-200.533333v-87.466667H317.866667z m236.8-426.666667a42.666667 42.666667 0 0 0-85.333334 0v102.4a42.666667 42.666667 0 0 0 85.333334 0z"  horiz-adv-x="1024" />

    
    <glyph glyph-name="remind" unicode="&#58908;" d="M917.333333 123.733333h-36.266666V424.533333v6.4c0 187.733333-142.933333 343.466667-324.266667 364.8V810.666667c0 23.466667-19.2 42.666667-42.666667 42.666666s-42.666667-19.2-42.666666-42.666666v-17.066667c-181.333333-21.333333-324.266667-177.066667-324.266667-364.8v-307.2H108.8c-23.466667 0-42.666667-19.2-42.666667-42.666667s19.2-42.666667 42.666667-42.666666h234.666667c19.2-76.8 87.466667-132.266667 168.533333-132.266667s149.333333 55.466667 168.533333 132.266667h234.666667c23.466667 0 42.666667 19.2 42.666667 42.666666 2.133333 25.6-17.066667 44.8-40.533334 44.8zM230.4 428.8c0 155.733333 125.866667 281.6 281.6 281.6 155.733333 0 281.6-125.866667 281.6-281.6v-305.066667H230.4V428.8zM512-8.533333c-34.133333 0-64 19.2-78.933333 46.933333h155.733333c-12.8-27.733333-42.666667-46.933333-76.8-46.933333z"  horiz-adv-x="1024" />

    
    <glyph glyph-name="searchfor" unicode="&#58911;" d="M938.666667 2.133333L727.466667 213.333333c132.266667 155.733333 128 386.133333-14.933334 529.066667-149.333333 149.333333-398.933333 147.2-552.533333-8.533333C6.4 580.266667 2.133333 330.666667 151.466667 181.333333c74.666667-74.666667 170.666667-110.933333 268.8-110.933333 85.333333 0 170.666667 27.733333 243.2 83.2l213.333333-213.333333c17.066667-17.066667 42.666667-17.066667 59.733333 0 19.2 17.066667 19.2 44.8 2.133334 61.866666zM215.466667 241.066667c-117.333333 117.333333-113.066667 311.466667 8.533333 430.933333 59.733333 59.733333 136.533333 91.733333 217.6 93.866667h4.266667c78.933333 0 153.6-29.866667 209.066666-85.333334 55.466667-55.466667 87.466667-132.266667 85.333334-213.333333-2.133333-81.066667-34.133333-160-93.866667-217.6-121.6-121.6-315.733333-125.866667-430.933333-8.533333z"  horiz-adv-x="1024" />

    
    <glyph glyph-name="prompt-" unicode="&#58912;" d="M512 853.333333C253.866667 853.333333 42.666667 642.133333 42.666667 384s209.066667-469.333333 469.333333-469.333333 469.333333 209.066667 469.333333 469.333333c0 258.133333-209.066667 469.333333-469.333333 469.333333z m0-714.666666c-23.466667 0-42.666667 19.2-42.666667 42.666666V428.8c0 23.466667 19.2 42.666667 42.666667 42.666667s42.666667-19.2 42.666667-42.666667v-247.466667c0-23.466667-19.2-42.666667-42.666667-42.666666z m0 405.333333c-23.466667 0-42.666667 19.2-42.666667 42.666667s19.2 42.666667 42.666667 42.666666 42.666667-19.2 42.666667-42.666666-19.2-42.666667-42.666667-42.666667z"  horiz-adv-x="1024" />

    
    <glyph glyph-name="Unfold" unicode="&#58915;" d="M938.666667 691.2H87.466667c-23.466667 0-42.666667 19.2-42.666667 42.666667s19.2 42.666667 42.666667 42.666666H938.666667c23.466667 0 42.666667-19.2 42.666666-42.666666s-19.2-42.666667-42.666666-42.666667zM938.666667 452.266667H386.133333c-23.466667 0-42.666667 19.2-42.666666 42.666666s19.2 42.666667 42.666666 42.666667H938.666667c23.466667 0 42.666667-19.2 42.666666-42.666667s-19.2-42.666667-42.666666-42.666666zM938.666667 213.333333H386.133333c-23.466667 0-42.666667 19.2-42.666666 42.666667s19.2 42.666667 42.666666 42.666667H938.666667c23.466667 0 42.666667-19.2 42.666666-42.666667s-19.2-42.666667-42.666666-42.666667zM938.666667-25.6H87.466667c-23.466667 0-42.666667 19.2-42.666667 42.666667s19.2 42.666667 42.666667 42.666666H938.666667c23.466667 0 42.666667-19.2 42.666666-42.666666s-19.2-42.666667-42.666666-42.666667zM234.666667 409.6l-123.733334 87.466667c-27.733333 19.2-68.266667 0-68.266666-34.133334v-172.8C42.666667 256 81.066667 234.666667 110.933333 256l123.733334 87.466667c23.466667 12.8 23.466667 49.066667 0 66.133333z"  horiz-adv-x="1024" />

    
    <glyph glyph-name="Updated" unicode="&#58918;" d="M974.933333 305.06666700000005A469.333333 469.333333 0 0 0 179.2 51.200000000000045L149.333333 87.46666700000003v-59.733334a42.666667 42.666667 0 0 0-42.666666-42.666666 42.666667 42.666667 0 0 0-42.666667 42.666666v170.666667a42.666667 42.666667 0 0 0 42.666667 42.666667h170.666666a42.666667 42.666667 0 0 0 42.666667-42.666667 42.666667 42.666667 0 0 0-42.666667-42.666667H202.666667a386.133333 386.133333 0 0 1 36.266666-42.666666 384 384 0 0 1 650.666667 204.8 42.666667 42.666667 0 0 0 44.8 36.266666 42.666667 42.666667 0 0 0 40.533333-49.066666zM87.466667 418.133333a42.666667 42.666667 0 0 1 44.8 36.266667 384 384 0 0 0 648.533333 202.666667l36.266667-40.533334h-59.733334a42.666667 42.666667 0 0 1-42.666666-42.666666 42.666667 42.666667 0 0 1 42.666666-42.666667h170.666667a42.666667 42.666667 0 0 1 42.666667 42.666667v170.666666a42.666667 42.666667 0 1 1-85.333334 0v-74.666666a473.6 473.6 0 0 1-42.666666 49.066666A469.333333 469.333333 0 0 1 49.066667 467.2a42.666667 42.666667 0 0 1 38.4-49.066667z"  horiz-adv-x="1024" />

    
    <glyph glyph-name="UserCenter" unicode="&#58919;" d="M680.533333 343.46666700000003a283.733333 283.733333 0 1 1-341.333333-2.133334A398.933333 398.933333 0 0 1 64-42.66666699999996a42.666667 42.666667 0 0 1 42.666667-42.666666h810.666666a42.666667 42.666667 0 0 1 42.666667 42.666666 398.933333 398.933333 0 0 1-279.466667 386.133334zM507.733333 768a198.4 198.4 0 1 0-198.4-198.4A200.533333 200.533333 0 0 0 507.733333 768zM177.066667 0a21.333333 21.333333 0 0 0-21.333334 25.6c32 155.733333 168.533333 258.133333 356.266667 258.133333s324.266667-102.4 356.266667-258.133333a21.333333 21.333333 0 0 0-21.333334-25.6z"  horiz-adv-x="1024" />

    
    <glyph glyph-name="user" unicode="&#58920;" d="M682.666667 341.33333300000004a283.733333 283.733333 0 1 1-343.466667 0C187.733333 285.866667 81.066667 149.33333300000004 66.133333-40.53333299999997a42.666667 42.666667 0 0 1 42.666667-44.8h806.4a42.666667 42.666667 0 0 1 42.666667 44.8C942.933333 149.33333300000004 836.266667 285.866667 682.666667 341.33333300000004z"  horiz-adv-x="1024" />

    
    <glyph glyph-name="SystemManagement" unicode="&#58922;" d="M512 181.33333300000004a202.666667 202.666667 0 1 0 202.666667 202.666667 204.8 204.8 0 0 0-202.666667-202.666667z m0 322.133334a117.333333 117.333333 0 1 1 117.333333-119.466667 117.333333 117.333333 0 0 1-117.333333 117.333333zM618.666667-104.53333299999997h-194.133334a42.666667 42.666667 0 0 0-42.666666 36.266666l-10.666667 89.6a377.6 377.6 0 0 0-83.2 44.8l-91.733333-36.266666a42.666667 42.666667 0 0 0-53.333334 19.2l-96 166.4a42.666667 42.666667 0 0 0 10.666667 55.466666L119.466667 320a21.333333 21.333333 0 0 1 8.533333 19.2 388.266667 388.266667 0 0 0-2.133333 44.8v25.6a21.333333 21.333333 0 0 1-8.533334 19.2l-70.4 51.2a42.666667 42.666667 0 0 0-10.666666 55.466667l96 166.4a42.666667 42.666667 0 0 0 53.333333 19.2l74.666667-29.866667a21.333333 21.333333 0 0 1 21.333333 2.133333 388.266667 388.266667 0 0 0 57.6 34.133334 21.333333 21.333333 0 0 1 10.666667 17.066666l12.8 89.6a42.666667 42.666667 0 0 0 42.666666 36.266667h194.133334a42.666667 42.666667 0 0 0 42.666666-36.266667l10.666667-81.066666a21.333333 21.333333 0 0 1 12.8-17.066667A388.266667 388.266667 0 0 0 723.2 704a21.333333 21.333333 0 0 1 19.2-2.133333l85.333333 34.133333a42.666667 42.666667 0 0 0 53.333334-19.2l96-168.533333a42.666667 42.666667 0 0 0-10.666667-55.466667l-64-49.066667a21.333333 21.333333 0 0 1-8.533333-19.2 384 384 0 0 0 2.133333-46.933333v-21.333333a21.333333 21.333333 0 0 1 8.533333-19.2l70.4-55.466667a42.666667 42.666667 0 0 0 10.666667-55.466667L891.733333 64a42.666667 42.666667 0 0 0-53.333333-19.2l-83.2 34.133333a390.4 390.4 0 0 0-81.066667-49.066666l-12.8-96a42.666667 42.666667 0 0 0-42.666666-38.4z m-136.533334 85.333333h81.066667a21.333333 21.333333 0 0 1 21.333333 19.2l10.666667 78.933333a21.333333 21.333333 0 0 0 12.8 17.066667l12.8 4.266667a307.2 307.2 0 0 1 98.133333 61.866666l10.666667 8.533334a21.333333 21.333333 0 0 0 23.466667 4.266666l68.266666-27.733333a21.333333 21.333333 0 0 1 25.6 8.533333l40.533334 70.4a21.333333 21.333333 0 0 1-6.4 27.733334l-64 49.066666a21.333333 21.333333 0 0 0-8.533334 19.2v12.8a307.2 307.2 0 0 1 4.266667 44.8 288 288 0 0 1-8.533333 68.266667l-4.266667 12.8a21.333333 21.333333 0 0 0 8.533333 21.333333l59.733334 46.933334a21.333333 21.333333 0 0 1 6.4 27.733333l-40.533334 70.4a21.333333 21.333333 0 0 1-25.6 8.533333l-76.8-32a21.333333 21.333333 0 0 0-21.333333 2.133334l-10.666667 8.533333a305.066667 305.066667 0 0 1-98.133333 51.2l-12.8 4.266667a21.333333 21.333333 0 0 0-14.933333 17.066666L563.2 768a21.333333 21.333333 0 0 1-21.333333 19.2h-81.066667a21.333333 21.333333 0 0 1-21.333333-19.2l-10.666667-83.2a21.333333 21.333333 0 0 0-12.8-17.066667l-10.666667-4.266666a305.066667 305.066667 0 0 1-93.866666-57.6l-10.666667-8.533334a21.333333 21.333333 0 0 0-21.333333-4.266666l-74.666667 27.733333a21.333333 21.333333 0 0 1-25.6-8.533333l-40.533333-70.4a21.333333 21.333333 0 0 1 6.4-27.733334l66.133333-51.2a21.333333 21.333333 0 0 0 8.533333-21.333333v-12.8a302.933333 302.933333 0 0 1 2.133334-113.066667v-12.8a21.333333 21.333333 0 0 0-8.533334-21.333333l-59.733333-44.8a21.333333 21.333333 0 0 1-6.4-27.733333l40.533333-70.4a21.333333 21.333333 0 0 1 25.6-8.533334l74.666667 29.866667a21.333333 21.333333 0 0 0 21.333333-4.266667l10.666667-8.533333a294.4 294.4 0 0 1 100.266667-55.466667l12.8-4.266666a21.333333 21.333333 0 0 0 14.933333-17.066667l10.666667-72.533333a21.333333 21.333333 0 0 1 23.466666-17.066667z"  horiz-adv-x="1024" />

    
    <glyph glyph-name="batchdeletion" unicode="&#58923;" d="M680.533333 817.066667a44.8 44.8 0 0 1-42.666666 36.266666H85.333333a42.666667 42.666667 0 0 1-42.666666-42.666666v-552.533334A44.8 44.8 0 0 1 76.8 213.33333300000004 42.666667 42.666667 0 0 1 128 256V746.666667a21.333333 21.333333 0 0 0 21.333333 21.333333h490.666667a42.666667 42.666667 0 0 1 40.533333 49.066667zM938.666667 682.666667H256a42.666667 42.666667 0 0 1-42.666667-42.666667v-682.666667a42.666667 42.666667 0 0 1 42.666667-42.666666h682.666667a42.666667 42.666667 0 0 1 42.666666 42.666666V640a42.666667 42.666667 0 0 1-42.666666 42.666667z m-64-682.666667H320a21.333333 21.333333 0 0 0-21.333333 21.333333V576a21.333333 21.333333 0 0 0 21.333333 21.333333h554.666667a21.333333 21.333333 0 0 0 21.333333-21.333333v-554.666667a21.333333 21.333333 0 0 0-21.333333-21.333333zM454.4 147.20000000000005a44.8 44.8 0 0 1 55.466667 6.4l85.333333 85.333333 85.333333-85.333333a44.8 44.8 0 0 1 55.466667-6.4 42.666667 42.666667 0 0 1 6.4 64l-85.333333 87.466667 85.333333 85.333333a44.8 44.8 0 0 1 6.4 55.466667 42.666667 42.666667 0 0 1-64 6.4L597.333333 358.4l-85.333333 85.333333a44.8 44.8 0 0 1-55.466667 6.4 42.666667 42.666667 0 0 1-6.4-64l87.466667-87.466666-87.466667-87.466667a42.666667 42.666667 0 0 1 4.266667-64z"  horiz-adv-x="1024" />

    
    <glyph glyph-name="Monitoringmanagemen1" unicode="&#58977;" d="M768 40.53333299999997H256c-23.466667 0-42.666667-19.2-42.666667-42.666666s19.2-42.666667 42.666667-42.666667h512c23.466667 0 42.666667 19.2 42.666667 42.666667s-19.2 42.666667-42.666667 42.666666zM256 253.866667c23.466667 0 42.666667 19.2 42.666667 42.666666V554.666667c0 23.466667-19.2 42.666667-42.666667 42.666666s-42.666667-19.2-42.666667-42.666666v-258.133334c0-23.466667 19.2-42.666667 42.666667-42.666666zM424.533333 258.133333c23.466667 0 42.666667 19.2 42.666667 42.666667V637.866667c0 23.466667-19.2 42.666667-42.666667 42.666666s-42.666667-19.2-42.666666-42.666666V298.66666699999996c0-21.333333 19.2-40.533333 42.666666-40.533334zM597.333333 258.133333c23.466667 0 42.666667 19.2 42.666667 42.666667V512c0 23.466667-19.2 42.666667-42.666667 42.666667s-42.666667-19.2-42.666666-42.666667v-211.2c0-23.466667 19.2-42.666667 42.666666-42.666667zM768 258.133333c23.466667 0 42.666667 19.2 42.666667 42.666667v166.4c0 23.466667-19.2 42.666667-42.666667 42.666667s-42.666667-19.2-42.666667-42.666667v-166.4c0-23.466667 19.2-42.666667 42.666667-42.666667zM938.666667 808.533333H85.333333c-23.466667 0-42.666667-19.2-42.666666-42.666666v-593.066667c0-23.466667 19.2-42.666667 42.666666-42.666667h853.333334c23.466667 0 42.666667 19.2 42.666666 42.666667V765.866667c0 23.466667-19.2 42.666667-42.666666 42.666666z m-64-593.066666H149.333333c-12.8 0-21.333333 8.533333-21.333333 21.333333V701.866667c0 12.8 8.533333 21.333333 21.333333 21.333333h725.333334c12.8 0 21.333333-8.533333 21.333333-21.333333v-465.066667c0-10.666667-10.666667-21.333333-21.333333-21.333333z"  horiz-adv-x="1024" />

    
    <glyph glyph-name="BMSzhuanqu_quanping" unicode="&#59202;" d="M360.533333 804.266667a42.666667 42.666667 0 0 1-42.666666 42.666666H91.733333a42.666667 42.666667 0 0 1-42.666666-42.666666v-226.133334a42.666667 42.666667 0 0 1 42.666666-42.666666 42.666667 42.666667 0 0 1 42.666667 42.666666V699.733333l138.666667-138.666666a42.666667 42.666667 0 0 1 59.733333 0 42.666667 42.666667 0 0 1 0 59.733333L196.266667 761.6h121.6a42.666667 42.666667 0 0 1 42.666666 42.666667zM889.6 68.266667l-138.666667 138.666666a42.666667 42.666667 0 0 1-59.733333 0 42.666667 42.666667 0 0 1 0-59.733333l138.666667-138.666667h-123.733334a42.666667 42.666667 0 0 1-42.666666-42.666666 42.666667 42.666667 0 0 1 42.666666-42.666667h226.133334a42.666667 42.666667 0 0 1 42.666666 42.666667V189.866667a42.666667 42.666667 0 0 1-42.666666 42.666666 42.666667 42.666667 0 0 1-42.666667-42.666666zM273.066667 204.8l-138.666667-136.533333v121.6a42.666667 42.666667 0 0 1-42.666667 42.666666 42.666667 42.666667 0 0 1-42.666666-42.666666v-226.133334a42.666667 42.666667 0 0 1 42.666666-42.666666h226.133334a42.666667 42.666667 0 0 1 42.666666 42.666666 42.666667 42.666667 0 0 1-42.666666 42.666667H196.266667l138.666666 138.666667a42.666667 42.666667 0 0 1 0 59.733333 42.666667 42.666667 0 0 1-61.866666 0zM663.466667 804.266667a42.666667 42.666667 0 0 1 42.666666-42.666667h121.6l-138.666666-138.666667a42.666667 42.666667 0 0 1 0-59.733333 42.666667 42.666667 0 0 1 59.733333 0l138.666667 138.666667v-121.6a42.666667 42.666667 0 0 1 42.666666-42.666667 42.666667 42.666667 0 0 1 42.666667 42.666667V804.266667a42.666667 42.666667 0 0 1-42.666667 42.666666H706.133333a42.666667 42.666667 0 0 1-42.666666-42.666666z"  horiz-adv-x="1024" />

    
    <glyph glyph-name="BMS_fanhui" unicode="&#59208;" d="M275.2 416L689.066667 823.466667c17.066667 17.066667 42.666667 17.066667 59.733333 0 17.066667-17.066667 17.066667-42.666667 0-59.733334l-366.933333-362.666666c-8.533333-8.533333-8.533333-21.333333 0-29.866667l366.933333-366.933333c17.066667-17.066667 17.066667-42.666667 0-59.733334-17.066667-17.066667-42.666667-17.066667-59.733333 0L275.2 354.133333c-17.066667 17.066667-17.066667 42.666667 0 61.866667z"  horiz-adv-x="1024" />

    
    <glyph glyph-name="BMSzhuanqu_suofang" unicode="&#59220;" d="M49.066667 578.133333a42.666667 42.666667 0 0 1 42.666666-42.666666h226.133334a42.666667 42.666667 0 0 1 42.666666 42.666666V804.266667a42.666667 42.666667 0 0 1-42.666666 42.666666 42.666667 42.666667 0 0 1-42.666667-42.666666V682.666667L136.533333 819.2a42.666667 42.666667 0 0 1-59.733333 0 42.666667 42.666667 0 0 1 0-59.733333l136.533333-138.666667H91.733333a42.666667 42.666667 0 0 1-42.666666-42.666667zM748.8 85.333333l138.666667-138.666666a42.666667 42.666667 0 0 1 59.733333 0 42.666667 42.666667 0 0 1 0 59.733333L810.666667 147.2h121.6a42.666667 42.666667 0 0 1 42.666666 42.666667 42.666667 42.666667 0 0 1-42.666666 42.666666H706.133333a42.666667 42.666667 0 0 1-42.666666-42.666666v-226.133334a42.666667 42.666667 0 0 1 42.666666-42.666666 42.666667 42.666667 0 0 1 42.666667 42.666666zM136.533333-51.2l138.666667 136.533333v-121.6a42.666667 42.666667 0 0 1 42.666667-42.666666 42.666667 42.666667 0 0 1 42.666666 42.666666V189.866667a42.666667 42.666667 0 0 1-42.666666 42.666666H91.733333a42.666667 42.666667 0 0 1-42.666666-42.666666 42.666667 42.666667 0 0 1 42.666666-42.666667H213.333333l-136.533333-138.666667a42.666667 42.666667 0 0 1 0-59.733333 42.666667 42.666667 0 0 1 59.733333 0zM974.933333 578.133333a42.666667 42.666667 0 0 1-42.666666 42.666667H810.666667l138.666666 138.666667a42.666667 42.666667 0 0 1 0 59.733333 42.666667 42.666667 0 0 1-59.733333 0L748.8 682.666667V804.266667a42.666667 42.666667 0 0 1-42.666667 42.666666 42.666667 42.666667 0 0 1-42.666666-42.666666v-226.133334a42.666667 42.666667 0 0 1 42.666666-42.666666h226.133334a42.666667 42.666667 0 0 1 42.666666 42.666666z"  horiz-adv-x="1024" />

    
    <glyph glyph-name="dfzq-7" unicode="&#58885;" d="M810.666667-89.60000000000002c23.466667 0 42.666667 19.2 42.666666 42.666667V608c0 10.666667-4.266667 21.333333-12.8 29.866667l-183.466666 187.733333c-6.4 6.4-17.066667 10.666667-29.866667 10.666667H181.333333c-23.466667 0-42.666667-19.2-42.666666-42.666667v-842.666667c0-23.466667 19.2-42.666667 42.666666-42.666666H810.666667v2.133333zM224 731.733333c0 6.4 2.133333 10.666667 6.4 14.933334 4.266667 4.266667 8.533333 6.4 14.933333 6.4h315.733334v-168.533334c0-23.466667 19.2-42.666667 42.666666-42.666666h168.533334v-526.933334c0-6.4-2.133333-10.666667-6.4-14.933333-4.266667-4.266667-8.533333-6.4-14.933334-6.4H245.333333c-6.4 0-10.666667 2.133333-14.933333 6.4-4.266667 4.266667-6.4 8.533333-6.4 14.933333V731.733333z m529.066667-104.533333h-98.133334c-6.4 0-10.666667 4.266667-10.666666 10.666667V736l25.6-25.6 59.733333-59.733333 23.466667-23.466667z m-25.6 25.6M377.6 198.39999999999998c-23.466667 0-42.666667-19.2-42.666667-42.666667s19.2-42.666667 42.666667-42.666666h245.333333c23.466667 0 42.666667 19.2 42.666667 42.666666s-19.2 42.666667-42.666667 42.666667H377.6z m0 130.133333c-14.933333 0-29.866667-8.533333-36.266667-21.333333-8.533333-12.8-8.533333-29.866667 0-42.666667 8.533333-12.8 21.333333-21.333333 36.266667-21.333333h245.333333c23.466667 0 42.666667 19.2 42.666667 42.666667s-19.2 42.666667-42.666667 42.666666H377.6z m0 128c-23.466667 0-42.666667-19.2-42.666667-42.666666s19.2-42.666667 42.666667-42.666667h245.333333c23.466667 0 42.666667 19.2 42.666667 42.666667s-19.2 42.666667-42.666667 42.666666H377.6z m245.333333 0"  horiz-adv-x="1024" />

    
    <glyph glyph-name="dfzq-1" unicode="&#58886;" d="M977.066667-27.733333L552.533333 823.466667c-14.933333 34.133333-64 34.133333-78.933333 0l-426.666667-849.066667c-14.933333-29.866667 6.4-66.133333 40.533334-66.133333h846.933333c34.133333 2.133333 57.6 36.266667 42.666667 64z m-149.333334 25.6H196.266667c-14.933333 0-27.733333 19.2-21.333334 32L490.666667 659.2c8.533333 14.933333 32 14.933333 40.533333 0l313.6-629.333333c10.666667-12.8 0-32-17.066667-32z m0 0M512 160c-25.6 0-44.8-21.333333-44.8-44.8 0-25.6 21.333333-44.8 44.8-44.8 25.6 0 44.8 21.333333 44.8 44.8s-19.2 44.8-44.8 44.8z m0 347.733333c-25.6 0-44.8-21.333333-44.8-44.8v-192c0-25.6 21.333333-44.8 44.8-44.8 25.6 0 44.8 21.333333 44.8 44.8v192c0 25.6-19.2 44.8-44.8 44.8z m0 0"  horiz-adv-x="1024" />

    
    <glyph glyph-name="dfzq-2" unicode="&#58887;" d="M684.8 757.333333h-140.8c-23.466667 0-42.666667-19.2-42.666667-42.666666v-277.333334c0-12.8-10.666667-21.333333-21.333333-21.333333H384c-19.2 74.666667-91.733333 128-177.066667 113.066667-61.866667-10.666667-110.933333-59.733333-121.6-119.466667-19.2-98.133333 55.466667-183.466667 149.333334-183.466667 70.4 0 130.133333 49.066667 149.333333 115.2h93.866667c12.8 0 21.333333-10.666667 21.333333-21.333333v-277.333333c0-23.466667 19.2-42.666667 42.666667-42.666667H682.666667c17.066667-57.6 72.533333-100.266667 138.666666-93.866667 66.133333 6.4 119.466667 64 121.6 130.133334 0 74.666667-57.6 134.4-132.266666 134.4-59.733333 0-110.933333-40.533333-125.866667-93.866667H597.333333c-12.8 0-21.333333 10.666667-21.333333 21.333333V317.866667c0 12.8 10.666667 21.333333 21.333333 21.333333h87.466667c17.066667-57.6 72.533333-100.266667 138.666667-93.866667 66.133333 6.4 119.466667 64 121.6 130.133334 0 74.666667-57.6 134.4-132.266667 134.4-59.733333 0-110.933333-40.533333-125.866667-93.866667H597.333333c-12.8 0-21.333333 10.666667-21.333333 21.333333V661.333333c0 12.8 10.666667 21.333333 21.333333 21.333334h87.466667c17.066667-57.6 72.533333-100.266667 138.666667-93.866667 66.133333 6.4 119.466667 64 121.6 130.133333 0 74.666667-57.6 134.4-132.266667 134.4-61.866667-2.133333-113.066667-40.533333-128-96zM234.666667 300.8c-49.066667 0-87.466667 44.8-74.666667 96 6.4 27.733333 29.866667 51.2 57.6 57.6 49.066667 12.8 93.866667-23.466667 96-70.4v-8.533333c-4.266667-42.666667-38.4-74.666667-78.933333-74.666667z m565.333333-209.066667c40.533333 8.533333 74.666667-27.733333 66.133333-66.133333-4.266667-21.333333-21.333333-40.533333-44.8-44.8-40.533333-8.533333-74.666667 27.733333-66.133333 66.133333 4.266667 21.333333 21.333333 40.533333 44.8 44.8z m0 341.333334c40.533333 8.533333 74.666667-27.733333 66.133333-66.133334-4.266667-21.333333-21.333333-40.533333-44.8-44.8-40.533333-8.533333-74.666667 27.733333-66.133333 66.133334 4.266667 23.466667 21.333333 40.533333 44.8 44.8z m66.133333 298.666666c8.533333-40.533333-27.733333-74.666667-66.133333-66.133333-21.333333 4.266667-40.533333 21.333333-44.8 44.8-8.533333 40.533333 27.733333 74.666667 66.133333 66.133333 23.466667-6.4 40.533333-23.466667 44.8-44.8z"  horiz-adv-x="1024" />

    
    <glyph glyph-name="dfzq-3" unicode="&#58888;" d="M512 838.4c-256 0-465.066667-206.933333-465.066667-465.066667 0-256 206.933333-465.066667 465.066667-465.066666 256 0 465.066667 206.933333 465.066667 465.066666C974.933333 629.333333 768 838.4 512 838.4z m0-842.666667c-209.066667 0-379.733333 170.666667-379.733333 379.733334S302.933333 755.2 512 755.2s379.733333-170.666667 379.733333-379.733333-170.666667-379.733333-379.733333-379.733334z m0 0M371.2 356.266667c0-19.2 6.4-38.4 14.933333-55.466667 27.733333-49.066667 76.8-76.8 125.866667-76.8 10.666667 0 21.333333 2.133333 32 4.266667 49.066667 10.666667 87.466667 46.933333 100.266667 93.866666l78.933333 230.4c6.4 17.066667-10.666667 32-27.733333 27.733334l-230.4-78.933334c-57.6-23.466667-98.133333-78.933333-93.866667-145.066666z m125.866667 61.866666l87.466666 29.866667c8.533333 2.133333 17.066667-4.266667 12.8-12.8l-29.866666-87.466667c-6.4-19.2-25.6-38.4-44.8-40.533333-19.2-4.266667-36.266667 2.133333-51.2 14.933333-12.8 12.8-19.2 32-14.933334 51.2 2.133333 21.333333 21.333333 40.533333 40.533334 44.8z m0 0"  horiz-adv-x="1024" />

    
    <glyph glyph-name="dfzq-4" unicode="&#58889;" d="M100.266667 426.666667h330.666666c23.466667 0 40.533333 19.2 40.533334 40.533333V797.866667c0 23.466667-19.2 40.533333-40.533334 40.533333H100.266667c-23.466667 0-40.533333-19.2-40.533334-40.533333v-330.666667c0-23.466667 17.066667-40.533333 40.533334-40.533333zM162.133333 753.066667h206.933334c12.8 0 21.333333-8.533333 21.333333-21.333334v-206.933333c0-12.8-8.533333-21.333333-21.333333-21.333333H162.133333c-12.8 0-21.333333 8.533333-21.333333 21.333333V733.866667c0 12.8 8.533333 19.2 21.333333 19.2z m390.4 42.666666v-330.666666c0-23.466667 19.2-40.533333 40.533334-40.533334h330.666666c23.466667 0 40.533333 19.2 40.533334 40.533334V795.733333c0 23.466667-19.2 40.533333-40.533334 40.533334H595.2c-23.466667 0-42.666667-19.2-42.666667-40.533334z m309.333334-288h-206.933334c-12.8 0-21.333333 8.533333-21.333333 21.333334V736c0 12.8 8.533333 21.333333 21.333333 21.333333h206.933334c12.8 0 21.333333-8.533333 21.333333-21.333333v-206.933333c0-12.8-8.533333-21.333333-21.333333-21.333334zM100.266667-70.4h330.666666c23.466667 0 40.533333 19.2 40.533334 40.533333V300.8c0 23.466667-19.2 40.533333-40.533334 40.533333H100.266667c-23.466667 0-40.533333-19.2-40.533334-40.533333v-330.666667c0-21.333333 17.066667-40.533333 40.533334-40.533333z m61.866666 330.666667h206.933334c12.8 0 21.333333-8.533333 21.333333-21.333334v-206.933333c0-12.8-8.533333-21.333333-21.333333-21.333333H162.133333c-12.8 0-21.333333 8.533333-21.333333 21.333333v206.933333c0 12.8 8.533333 21.333333 21.333333 21.333334z m433.066667-330.666667h330.666667c23.466667 0 40.533333 19.2 40.533333 40.533333V300.8c0 23.466667-19.2 40.533333-40.533333 40.533333H595.2c-23.466667 0-40.533333-19.2-40.533333-40.533333v-330.666667c-2.133333-21.333333 17.066667-40.533333 40.533333-40.533333z m61.866667 330.666667h206.933333c12.8 0 21.333333-8.533333 21.333333-21.333334v-206.933333c0-12.8-8.533333-21.333333-21.333333-21.333333h-206.933333c-12.8 0-21.333333 8.533333-21.333334 21.333333v206.933333c0 12.8 10.666667 21.333333 21.333334 21.333334z m0 0"  horiz-adv-x="1024" />

    
    <glyph glyph-name="dfzq-5" unicode="&#58890;" d="M930.133333 290.133333c-17.066667 0-32-10.666667-38.4-27.733333-55.466667-174.933333-224-288-407.466666-268.8-181.333333 19.2-326.4 162.133333-345.6 343.466667C121.6 518.4 234.666667 689.066667 407.466667 744.533333c17.066667 6.4 27.733333 21.333333 27.733333 38.4 0 12.8-6.4 25.6-17.066667 32-10.666667 8.533333-23.466667 8.533333-36.266666 6.4-209.066667-68.266667-343.466667-273.066667-320-492.8C85.333333 108.8 258.133333-64 477.866667-87.466667c219.733333-21.333333 424.533333 113.066667 490.666666 324.266667 4.266667 12.8 2.133333 25.6-6.4 36.266667-6.4 10.666667-17.066667 17.066667-32 17.066666z m0 0M573.866667 836.266667c-12.8 2.133333-23.466667-2.133333-32-10.666667-8.533333-8.533333-12.8-19.2-12.8-32v-375.466667c0-23.466667 19.2-42.666667 42.666666-42.666666h375.466667c12.8 0 23.466667 4.266667 32 12.8 8.533333 8.533333 12.8 21.333333 10.666667 32-27.733333 221.866667-198.4 392.533333-416 416z m298.666666-373.333334H627.2c-4.266667 0-10.666667 2.133333-12.8 6.4-4.266667 4.266667-6.4 8.533333-6.4 12.8V725.333333c0 6.4 2.133333 10.666667 6.4 14.933334 4.266667 4.266667 8.533333 6.4 14.933333 4.266666 110.933333-25.6 238.933333-162.133333 262.4-260.266666 2.133333-6.4 0-10.666667-4.266666-17.066667-4.266667-2.133333-8.533333-6.4-14.933334-4.266667z m0 0"  horiz-adv-x="1024" />

    
    <glyph glyph-name="dfzq-6" unicode="&#58891;" d="M456.533333-10.666667H119.466667c12.8 177.066667 123.733333 296.533333 277.333333 296.533334 51.2 0 96-12.8 134.4-36.266667 17.066667-10.666667 38.4-6.4 49.066667 8.533333l2.133333 2.133334c10.666667 17.066667 6.4 38.4-10.666667 49.066666-19.2 12.8-42.666667 23.466667-64 29.866667 93.866667 40.533333 157.866667 134.4 157.866667 241.066667 0 147.2-119.466667 266.666667-268.8 266.666666S130.133333 727.466667 130.133333 582.4c0-106.666667 64-198.4 157.866667-241.066667C140.8 292.266667 42.666667 142.933333 42.666667-49.066667c0-21.333333 17.066667-38.4 36.266666-38.4h373.333334c21.333333 0 36.266667 17.066667 36.266666 38.4 4.266667 21.333333-12.8 38.4-32 38.4zM204.8 580.266667c0 104.533333 85.333333 189.866667 192 189.866666s194.133333-85.333333 194.133333-189.866666-87.466667-189.866667-194.133333-189.866667c-106.666667 2.133333-192 87.466667-192 189.866667z m738.133333-424.533334h-29.866666c-4.266667 17.066667-10.666667 34.133333-19.2 49.066667l21.333333 21.333333c10.666667 10.666667 14.933333 27.733333 8.533333 40.533334-10.666667 23.466667-40.533333 25.6-55.466666 8.533333l-21.333334-21.333333c-14.933333 8.533333-29.866667 14.933333-46.933333 19.2v27.733333c0 14.933333-8.533333 29.866667-23.466667 34.133333-23.466667 8.533333-46.933333-10.666667-46.933333-34.133333v-29.866667c-17.066667-4.266667-34.133333-10.666667-46.933333-19.2L657.066667 277.333333c-12.8 12.8-34.133333 12.8-49.066667 0-14.933333-12.8-14.933333-36.266667 0-51.2l25.6-25.6c-8.533333-14.933333-14.933333-29.866667-19.2-46.933333h-29.866667c-14.933333 0-29.866667-8.533333-34.133333-23.466667-8.533333-23.466667 10.666667-46.933333 34.133333-46.933333h29.866667c4.266667-17.066667 10.666667-32 19.2-46.933333l-21.333333-21.333334c-10.666667-10.666667-14.933333-27.733333-8.533334-40.533333 10.666667-23.466667 40.533333-25.6 55.466667-8.533333l21.333333 21.333333c14.933333-8.533333 32-17.066667 49.066667-19.2v-29.866667c0-14.933333 8.533333-29.866667 23.466667-34.133333 23.466667-8.533333 46.933333 10.666667 46.933333 34.133333v32c17.066667 4.266667 34.133333 10.666667 46.933333 19.2l21.333334-21.333333c10.666667-10.666667 27.733333-14.933333 40.533333-8.533333 23.466667 10.666667 25.6 40.533333 8.533333 55.466666l-21.333333 21.333334c8.533333 14.933333 14.933333 29.866667 19.2 46.933333h29.866667c23.466667 0 40.533333 21.333333 34.133333 46.933333-4.266667 17.066667-19.2 25.6-36.266667 25.6z m-157.866666-117.333333c-66.133333-17.066667-123.733333 40.533333-106.666667 106.666667 8.533333 29.866667 32 51.2 59.733333 59.733333 66.133333 17.066667 123.733333-40.533333 106.666667-106.666667-6.4-29.866667-29.866667-53.333333-59.733333-59.733333z m0 0"  horiz-adv-x="1024" />

    
    <glyph glyph-name="left" unicode="&#58926;" d="M247.067286 320.952721l507.426938-416.08765c13.231392-10.731452 31.401691-12.865547 46.767179-5.609623 15.365488 7.316899 25.121353 22.804335 25.182327 39.755151V771.246874c0.060974 17.072764-9.816839 32.682148-25.243301 39.999047-15.426462 7.316899-33.718709 5.060855-46.889127-5.792545L246.823389 389.365726c-10.243658-8.414434-16.158152-20.97511-16.158151-34.267477 0.060974-13.231392 6.097416-25.792069 16.402048-34.145528z m0 0"  horiz-adv-x="1026" />

    
    <glyph glyph-name="right" unicode="&#58927;" d="M793.88353 417.535787L286.517566 833.623437c-13.231392 10.731452-31.401691 12.865547-46.767179 5.609622-15.365488-7.316899-25.121353-22.804335-25.182327-39.75515V-32.636418c-0.060974-17.072764 9.816839-32.682148 25.243301-39.999047 15.426462-7.316899 33.718709-5.060855 46.889127 5.792545l507.365964 416.08765c10.243658 8.414434 16.158152 20.97511 16.158152 34.267477-0.060974 13.170418-6.036442 25.67012-16.341074 34.02358z m0 0"  horiz-adv-x="1026" />

    
    <glyph glyph-name="down" unicode="&#58928;" d="M546.999166 73.763487l416.087651 507.426938c10.731452 13.231392 12.865547 31.401691 5.609622 46.767179-7.316899 15.365488-22.804335 25.121353-39.75515 25.182327H96.705014c-17.072764 0.060974-32.682148-9.816839-39.999048-25.243301-7.316899-15.426462-5.060855-33.718709 5.792545-46.889127l416.087651-507.365964c8.414434-10.243658 20.97511-16.158152 34.267476-16.158152 13.231392 0 25.792069 5.975467 34.145528 16.2801z m0 0"  horiz-adv-x="1026" />

    
    <glyph glyph-name="up" unicode="&#58929;" d="M479.378826 664.725021l-416.087651-507.426938c-10.731452-13.231392-12.865547-31.401691-5.609622-46.767179 7.316899-15.365488 22.804335-25.121353 39.755151-25.182327h832.114326c17.072764-0.060974 32.682148 9.816839 39.999047 25.243301 7.316899 15.426462 5.060855 33.718709-5.792545 46.889127L547.79183 664.968917c-8.414434 10.243658-20.97511 16.158152-34.267476 16.158152-13.231392-0.060974-25.792069-6.097416-34.145528-16.402048z m0 0"  horiz-adv-x="1026" />

    
    <glyph glyph-name="DFZQ_LOGO-" unicode="&#58898;" d="M653.312 844.8c-51.2 40.96-124.928 43.008-178.176 0l-194.56-157.696c-12.288-10.24-14.336-30.72-4.096-43.008 2.048-2.048 2.048-4.096 4.096-4.096l176.128-141.312c30.72-24.576 75.776-24.576 106.496 0L821.248 709.632l-167.936 135.168zM970.752 240.64c40.96 51.2 43.008 124.928 0 178.176l-157.696 194.56c-10.24 12.288-30.72 14.336-43.008 4.096-2.048-2.048-4.096-2.048-4.096-4.096l-141.312-176.128c-24.576-30.72-24.576-75.776 0-106.496l212.992-260.096 133.12 169.984zM368.64-76.8c51.2-40.96 124.928-43.008 178.176 0l194.56 157.696c12.288 10.24 14.336 30.72 4.096 43.008-2.048 2.048-2.048 4.096-4.096 4.096l-176.128 141.312c-30.72 24.576-75.776 24.576-106.496 0L198.656 58.368l169.984-135.168zM51.2 527.36c-40.96-51.2-43.008-124.928 0-178.176l157.696-194.56c10.24-12.288 30.72-14.336 43.008-4.096 2.048 2.048 4.096 2.048 4.096 4.096l141.312 176.128c24.576 30.72 24.576 75.776 0 106.496L186.368 695.296 51.2 527.36z"  horiz-adv-x="1024" />

    
    <glyph glyph-name="zuzhijigou" unicode="&#58904;" d="M243.382 363.678C129.092 297.25 54.355 151.77999999999997 56.417-31c0-22.87 18.745-41.494 41.494-41.494h581.642c22.87 0 41.493 18.745 41.493 41.494 0 182.78-74.737 328.25-191.09 394.677C596.383 411.48 640.121 490.404 640.121 579.7c0 143.409-116.352 261.703-255.454 261.703S131.276 722.988 131.276 579.7c0-89.296 45.619-168.28 112.106-216.022zM557.012 579.7c0-97.607-76.8-178.654-170.282-178.654S216.447 480.03 216.447 579.7s76.8 178.655 170.283 178.655c93.482 0.06 170.282-81.047 170.282-178.655zM160.334 10.615999999999985c-12.436 0-20.808 12.436-18.745 22.87 18.745 170.283 114.29 284.451 245.14 284.451s226.397-114.29 245.142-284.572c2.063-12.436-8.25-22.87-20.807-22.87h-450.73v0.121zM638.059 349.11800000000005c0-29.057 20.807-51.988 47.803-58.176 116.352-26.995 199.34-149.596 209.835-313.63 0-18.745 14.498-31.181 33.243-31.181h6.188c18.745 0 35.306 16.682 33.244 35.306-10.374 178.654-101.733 319.818-230.522 369.744 87.234 39.431 149.596 130.851 149.596 234.768 0 126.726-91.42 232.584-209.835 253.391-20.807 2.063-39.43-12.436-39.43-33.243v-6.188c0-16.682 12.435-31.181 29.057-33.244 83.109-14.498 147.534-89.357 147.534-180.716 0-85.172-58.177-157.847-134.977-178.654-25.175-8.311-41.736-31.181-41.736-58.177z"  horiz-adv-x="1024" />

    
    <glyph glyph-name="rili" unicode="&#58906;" d="M626.40128 519.39328h-33.80224v31.29344H433.63328v-31.29344h-33.81248v31.29344h-94.37184v-106.48576h412.80512V550.68672h-91.8528v-31.29344zM305.44896 410.90048h412.80512v-243.74272H305.44896zM511.85664 870.63552c-268.67712 0-486.48192-217.8048-486.48192-486.48192s217.8048-486.48192 486.48192-486.48192 486.48192 217.8048 486.48192 486.48192S780.53376 870.63552 511.85664 870.63552z m239.70816-720.65024a16.1792 16.1792 0 0 0-16.65024-16.65024H288.28672a16.1792 16.1792 0 0 0-16.65024 16.65024V567.83872a16.1792 16.1792 0 0 0 16.65024 16.66048H399.36v31.2832h33.792v-31.2832h157.42976v31.2832h33.792v-31.2832h108.544c9.59488 0 16.66048-7.0656 18.67776-16.66048z"  horiz-adv-x="1024" />

    
    <glyph glyph-name="lianlugenzong" unicode="&#58907;" d="M591.55456 426.65984a92.16 92.16 0 0 1-60.416-2.29376L419.76832 552.96a60.416 60.416 0 0 1 3.33824 19.97824 61.184 61.184 0 0 1-122.35776 0 59.65824 59.65824 0 0 1 3.92192-21.504l-97.97632-119.04h-0.57344a45.88544 45.88544 0 1 1 45.88544-45.88544c0 1.536-0.1024 2.9696-0.19456 4.39296l100.08576 121.69216a58.9312 58.9312 0 0 1 21.6064 0.28672L484.9664 384.31744a91.81184 91.81184 0 1 1 155.81184 6.02112l180.28544 244.04992a91.77088 91.77088 0 1 1-64.90112 87.7568 91.04384 91.04384 0 0 1 15.7696-51.33312z m-26.76736-118.34368A30.58688 30.58688 0 1 0 595.37408 338.944a30.72 30.72 0 0 0-30.58688-30.58688zM847.93344 752.64a30.58688 30.58688 0 1 0-30.58688-30.58688A30.72 30.72 0 0 0 847.93344 752.64z m109.35296-765.00992l-182.00576 178.7904a35.84 35.84 0 0 1-50.432-0.32768 35.42016 35.42016 0 0 1 0.33792-50.176l182.00576-178.8928a35.36896 35.36896 0 0 1 25.04704-10.24 35.52256 35.52256 0 0 1 25.04704 60.84608z m34.9696-39.2192M878.99136 446.64832a427.60192 427.60192 0 0 1-3.72736 56.49408 30.5664 30.5664 0 1 1-60.60032-8.02816 371.51744 371.51744 0 0 0 3.15392-48.46592c0-98.07872-38.144-190.23872-107.52-259.5328S548.864 79.5648 450.73408 79.5648s-190.22848 38.144-259.5328 107.52-107.52 161.45408-107.52 259.5328 38.144 190.22848 107.52 259.5328 161.45408 107.52 259.5328 107.52a366.12096 366.12096 0 0 0 194.2528-55.54176 30.59712 30.59712 0 1 1 32.4096 51.95776 428.78976 428.78976 0 1 1 201.59488-363.43808z m0 0"  horiz-adv-x="1024" />

    
    <glyph glyph-name="pingmuqiehuan" unicode="&#58909;" d="M789.6064 694.0672H111.0016c-36.6592 0-66.3552-29.696-66.3552-66.3552v-468.1728c0-36.6592 29.696-66.3552 66.3552-66.3552H421.888v-62.5664H283.4432c-15.6672 0-28.4672-12.6976-28.4672-28.4672 0-15.6672 12.6976-28.4672 28.4672-28.4672h333.6192c15.6672 0 28.4672 12.6976 28.4672 28.4672 0 15.6672-12.6976 28.4672-28.4672 28.4672H478.72V93.184h310.8864c36.6592 0 66.3552 29.696 66.3552 66.3552V627.712c-0.1024 36.6592-29.7984 66.3552-66.3552 66.3552z m9.4208-525.1072c0-5.0176-1.9456-9.8304-5.5296-13.4144-3.584-3.584-8.3968-5.5296-13.4144-5.5296H120.4224c-5.0176 0-9.8304 1.9456-13.4144 5.5296-3.584 3.584-5.5296 8.3968-5.5296 13.4144V618.1888c0 5.0176 2.048 9.8304 5.5296 13.4144 3.584 3.584 8.3968 5.5296 13.4144 5.5296h659.6608c5.0176 0 9.8304-2.048 13.4144-5.5296 3.584-3.584 5.5296-8.3968 5.5296-13.4144V168.96z m0 0M916.992 731.8528c3.584-3.584 5.5296-8.3968 5.5296-13.4144v-442.5728c0-15.6672 12.6976-28.4672 28.4672-28.4672 15.6672 0 28.4672 12.6976 28.4672 28.4672V727.8592c0 36.6592-29.696 66.3552-66.3552 66.3552H365.4656c-15.6672 0-28.4672-12.6976-28.4672-28.4672 0-15.6672 12.6976-28.4672 28.4672-28.4672h538.112c5.0176 0.1024 9.8304-1.9456 13.4144-5.4272z"  horiz-adv-x="1024" />

    
    <glyph glyph-name="xiangyou" unicode="&#58910;" d="M763.733 354.133l-413.866-409.6c-17.067-17.066-44.8-17.066-59.734 0-17.066 17.067-17.066 44.8 0 59.734l366.934 362.666c8.533 8.534 8.533 21.334 0 29.867L290.133 761.6c-17.066 17.067-17.066 42.667 0 59.733 17.067 17.067 42.667 17.067 59.734 0l413.866-407.466c17.067-17.067 17.067-44.8 0-59.734z"  horiz-adv-x="1024" />

    
    <glyph glyph-name="quanbu" unicode="&#58913;" d="M294.81 614.625h682.173c25.997 0 47.072 21.075 47.072 47.072s-21.075 47.072-47.072 47.072H294.81c-25.997 0-47.072-21.075-47.072-47.072s21.074-47.072 47.072-47.072zM2.145 658.627a72 72 0 1 1 147.356 0 72 72 0 1 1-147.356 0zM976.983 434.142H294.81c-25.997 0-47.072-21.075-47.072-47.072 0-25.997 21.075-47.072 47.072-47.072h682.173c25.997 0 47.072 21.075 47.072 47.072 0 25.997-21.075 47.072-47.072 47.072zM2.145 384a72 72 0 1 1 147.356 0 72 72 0 1 1-147.356 0zM976.983 159.515H294.81c-25.997 0-47.072-21.075-47.072-47.072s21.075-47.072 47.072-47.072h682.173c25.997 0 47.072 21.075 47.072 47.072s-21.075 47.072-47.072 47.072zM2.145 109.373a72 72 0 1 1 147.356 0 72 72 0 1 1-147.356 0z"  horiz-adv-x="1025" />

    
    <glyph glyph-name="zuoyousuofang" unicode="&#58916;" d="M406.1184 793.6c-14.1312 0-25.6-11.4688-25.6-25.6v-358.4h-212.992l145.408 175.7184c8.8064 10.8544 7.168 26.8288-3.6864 35.84-10.4448 9.0112-26.4192 7.9872-35.4304-2.4576-0.2048-0.2048-0.2048-0.4096-0.4096-0.6144L93.184 400.384c-7.7824-9.6256-7.7824-23.1424 0-32.768l180.224-217.7024c4.7104-5.9392 11.8784-9.216 19.456-9.216 5.9392 0 11.8784 2.048 16.384 6.144 10.8544 9.0112 12.4928 24.9856 3.6864 35.84l-145.408 175.7184h212.992v-358.4c0-14.1312 11.4688-25.6 25.6-25.6s25.6 11.4688 25.6 25.6v768c0 14.1312-11.4688 25.6-25.6 25.6z m524.6976-393.216l-180.224 217.7024c-8.8064 10.6496-24.576 12.288-35.2256 3.4816-0.2048-0.2048-0.4096-0.2048-0.6144-0.4096-10.8544-9.0112-12.4928-24.9856-3.6864-35.84l145.408-175.7184h-212.992v358.4c0 14.1312-11.4688 25.6-25.6 25.6s-25.6-11.4688-25.6-25.6v-768c0-14.1312 11.4688-25.6 25.6-25.6s25.6 11.4688 25.6 25.6v358.4h212.992l-145.408-175.5136c-8.8064-10.8544-7.168-26.8288 3.6864-35.84 4.5056-4.096 10.4448-6.144 16.384-6.144 7.5776 0 14.7456 3.2768 19.456 9.216l180.224 217.7024c7.7824 9.4208 7.7824 22.9376 0 32.5632z"  horiz-adv-x="1024" />

    


  </font>
</defs>
</svg>
