<?xml version="1.0" encoding="UTF-8"?>
<svg width="16px" height="16px" viewBox="0 0 16 16" version="1.1" xmlns="http://www.w3.org/2000/svg" xmlns:xlink="http://www.w3.org/1999/xlink">
    <!-- Generator: Sketch 54.1 (76490) - https://sketchapp.com -->
    <title>icon-date</title>
    <desc>Created with Sketch.</desc>
    <g id="图标库" stroke="none" stroke-width="1" fill="none" fill-rule="evenodd">
        <g id="通用" transform="translate(-200.000000, -82.000000)" fill="#8B9BE1" fill-rule="nonzero">
            <g id="icon-date" transform="translate(200.000000, 70.000000)">
                <g transform="translate(0.000000, 12.000000)" id="分组-3">
                    <g>
                        <g>
                            <path d="M5,0.5 C5,0.223857625 5.22385763,8.8817842e-15 5.5,8.8817842e-15 C5.77614237,8.8817842e-15 6,0.223857625 6,0.5 L6,2.5 C6,2.77614237 5.77614237,3 5.5,3 C5.22385763,3 5,2.77614237 5,2.5 L5,0.5 Z M10,0.5 C10,0.223857625 10.2238576,8.8817842e-15 10.5,8.8817842e-15 C10.7761424,8.8817842e-15 11,0.223857625 11,0.5 L11,2.5 C11,2.77614237 10.7761424,3 10.5,3 C10.2238576,3 10,2.77614237 10,2.5 L10,0.5 Z M4.5,10 C4.22385763,10 4,9.77614237 4,9.5 C4,9.22385763 4.22385763,9 4.5,9 L11.5,9 C11.7761424,9 12,9.22385763 12,9.5 C12,9.77614237 11.7761424,10 11.5,10 L4.5,10 Z M4.5,12.5 C4.22385763,12.5 4,12.2761424 4,12 C4,11.7238576 4.22385763,11.5 4.5,11.5 L11.5,11.5 C11.7761424,11.5 12,11.7238576 12,12 C12,12.2761424 11.7761424,12.5 11.5,12.5 L4.5,12.5 Z" id="合并形状"></path>
                            <path d="M1.5,5.5 L14.5,5.5 L14.5,3.5 C14.5,3.22385763 14.2761424,3 14,3 L2,3 C1.72385763,3 1.5,3.22385763 1.5,3.5 L1.5,5.5 Z M1.5,6.5 L1.5,14.5 C1.5,14.7761424 1.72385763,15 2,15 L14,15 C14.2761424,15 14.5,14.7761424 14.5,14.5 L14.5,6.5 L1.5,6.5 Z M2,2 L14,2 C14.8284271,2 15.5,2.67157288 15.5,3.5 L15.5,14.5 C15.5,15.3284271 14.8284271,16 14,16 L2,16 C1.17157288,16 0.5,15.3284271 0.5,14.5 L0.5,3.5 C0.5,2.67157288 1.17157288,2 2,2 Z" id="合并形状"></path>
                        </g>
                    </g>
                </g>
            </g>
        </g>
    </g>
</svg>